<svg width="49" height="45" viewBox="0 0 49 45" fill="none" xmlns="http://www.w3.org/2000/svg">
<path d="M42.1066 15.9015L42.3753 15.6115L42.226 15.2455C39.3609 8.21667 32.4589 3.26073 24.3979 3.26073C15.8785 3.26073 8.65367 8.79599 6.12042 16.4646L6.0212 16.7649L6.20593 17.0217C9.27777 21.2913 15.943 23.522 22.8766 23.4722C29.8399 23.4223 37.3122 21.0768 42.1066 15.9015Z" fill="#C7E2FF" stroke="white" stroke-width="1.24124"/>
<path d="M16.6059 40.0404L17.2949 40.3118L17.4417 39.586C17.8472 37.5814 17.8472 35.7352 17.8472 33.2122V33.1723V33.1723V32.8471L17.5798 32.662C12.5328 29.1679 9.29159 25.7328 6.32896 21.6052L5.2957 20.1656L5.20496 21.9353C4.79823 29.8674 9.86988 37.3868 16.6059 40.0404Z" fill="#C7E2FF" stroke="white" stroke-width="1.24124"/>
<path d="M42.7664 19.4114L43.3822 19.3341L43.2045 17.9178L42.2899 19.0137L42.7664 19.4114ZM42.7664 19.4114L43.3822 19.3342L43.3822 19.3343L43.3822 19.3347L43.3824 19.3359L43.383 19.3407L43.3852 19.3586L43.3935 19.4266C43.4006 19.4854 43.4107 19.5703 43.4229 19.6754C43.4471 19.8855 43.4795 20.1767 43.5118 20.5016C43.5758 21.143 43.6428 21.9443 43.6428 22.5055C43.6428 30.6621 38.5687 37.6321 31.4071 40.434L30.9072 40.6296L30.6416 40.163C30.1745 39.3425 30.0231 38.3356 29.998 37.3158C29.9729 36.297 30.0739 35.1862 30.1709 34.1201L30.1726 34.1015L30.1726 34.1015L30.1728 34.099L30.1855 33.9528L30.2646 33.8262C30.5349 33.3937 31.4368 32.2393 32.5927 30.7995C33.7638 29.3406 35.2319 27.5445 36.6679 25.7992C38.1042 24.0535 39.5097 22.3572 40.556 21.0974C41.0791 20.4675 41.5126 19.9466 41.8152 19.5832L42.166 19.1622L42.2582 19.0517L42.2819 19.0233L42.2879 19.0161L42.2894 19.0143L42.2897 19.0139C42.2898 19.0138 42.2899 19.0137 42.7664 19.4114Z" fill="#C7E2FF" stroke="white" stroke-width="1.24124"/>
<path d="M24.5077 9.9525C21.4025 9.9525 18.9324 12.482 18.9324 15.5278C18.9324 18.5778 21.4577 21.1032 24.5077 21.1032C27.6129 21.1032 30.083 18.5736 30.083 15.5278C30.083 12.482 27.6129 9.9525 24.5077 9.9525Z" fill="#375B9F" stroke="white" stroke-width="1.24124"/>
<path d="M31.4738 40.4011L31.2049 39.8417C31.4738 40.4011 31.4736 40.4011 31.4734 40.4012L31.473 40.4015L31.4719 40.402L31.4689 40.4034L31.4602 40.4075L31.431 40.4209C31.4064 40.4321 31.3716 40.4477 31.3266 40.467C31.2367 40.5055 31.1065 40.559 30.9375 40.6224C30.5997 40.7491 30.1066 40.9154 29.4713 41.0808C28.2007 41.4117 26.3602 41.7393 24.0538 41.7393C21.7562 41.7393 19.851 41.3169 18.5158 40.8856C17.848 40.6699 17.3204 40.4512 16.9546 40.2801C16.7722 40.1948 16.627 40.1199 16.5228 40.0615C16.4719 40.033 16.4244 40.0048 16.3849 39.9788C16.367 39.967 16.3388 39.9479 16.3096 39.9242C16.2969 39.9139 16.2673 39.8894 16.2354 39.8544C16.22 39.8374 16.1902 39.8031 16.161 39.7545C16.1396 39.719 16.0716 39.6012 16.0716 39.433V39.3323L16.1034 39.2368C16.1152 39.2016 16.1381 39.0992 16.1635 38.9063C16.1874 38.7254 16.2096 38.4981 16.2299 38.2351C16.2705 37.7099 16.302 37.0663 16.3275 36.4143C16.3517 35.7931 16.3705 35.1549 16.3865 34.615C16.3974 34.2439 16.407 33.9193 16.416 33.6787C13.8441 32.1419 8.39389 28.7247 3.8819 20.0015L3.88063 19.9991C2.73763 17.765 1.88797 15.4452 1.62067 13.2533L1.61952 13.2439L1.61866 13.2344C1.6144 13.1875 1.60362 13.106 1.5897 13.0005C1.5469 12.6764 1.47431 12.1267 1.46929 11.6653C1.46588 11.3512 1.48827 10.9821 1.60352 10.6666C1.72573 10.3322 2.01057 9.93673 2.55557 9.90267C3.2945 9.85648 3.82863 10.3673 4.16345 10.8137C4.5152 11.2827 4.79294 11.8725 5.0006 12.3648C6.65658 15.9189 8.96991 18.2797 12.0536 19.7362C15.1606 21.2037 19.0986 21.7764 24.0317 21.6499L24.0319 21.6499C28.94 21.5254 33.8035 19.8532 37.6139 17.5507C41.447 15.2345 44.0843 12.3626 44.744 9.91762C44.8223 9.55272 44.9543 9.24637 45.1555 9.013C45.3693 8.76509 45.6313 8.6347 45.8921 8.58907C46.3451 8.50978 46.7898 8.71401 46.7699 8.7074L46.8282 8.72683L46.8816 8.75732C47.012 8.83181 47.1577 8.93518 47.2783 9.09232C47.4027 9.25438 47.471 9.43513 47.5041 9.62249C47.5627 9.95469 47.5174 10.3727 47.4428 10.8695L47.4412 10.8802L47.4393 10.8909C46.8792 13.9043 45.2508 16.9399 43.2593 19.8144C41.2642 22.6941 38.8667 25.4644 36.7252 27.9374M31.4738 40.4011L4.43315 12.6163C7.85547 19.9718 14.0872 22.5257 24.0477 22.2704C34.1103 22.015 43.9176 15.4257 45.3478 10.0624C45.5856 8.92077 46.3107 9.19662 46.533 9.28121C46.5495 9.28746 46.5631 9.29266 46.5737 9.29617C46.9312 9.50049 46.9823 9.75589 46.8291 10.7775C45.7564 16.5495 40.5463 22.5768 36.2556 27.5315C36.1638 27.6383 36.0722 27.7447 35.981 27.8508C33.8899 30.2813 31.9669 32.5163 30.8412 34.3762M31.4738 40.4011L31.9615 40.1666L31.7957 39.6516L31.7957 39.6516L31.7956 39.6515L31.4738 40.4011ZM36.7252 27.9374C36.725 27.9375 36.7249 27.9377 36.7248 27.9378L36.2559 27.5318L36.7262 27.9362C36.7258 27.9366 36.7255 27.937 36.7252 27.9374ZM36.7252 27.9374C36.6416 28.0346 36.5583 28.1314 36.4754 28.2278C34.4108 30.6276 32.5563 32.7833 31.4482 34.5733M31.4482 34.5733C31.451 34.5513 31.4538 34.5294 31.4566 34.5075L31.4618 34.4676V34.4273V34.3762H30.8412M31.4482 34.5733C31.4225 34.6149 31.3971 34.6563 31.3722 34.6975L30.9488 34.4413L30.9256 34.4273L30.8412 34.3762M31.4482 34.5733C31.3108 35.6735 31.3123 36.878 31.458 38.1897L31.459 38.1982L31.4597 38.2067C31.4804 38.4552 31.5589 38.8064 31.6422 39.121C31.6823 39.2728 31.7211 39.4067 31.7498 39.5025C31.7557 39.5223 31.7612 39.5405 31.7662 39.5568C31.7732 39.5798 31.7792 39.599 31.7838 39.6141L31.7929 39.643L31.7951 39.6499L31.7956 39.6514L31.7956 39.6515L30.8412 34.4273M30.8412 34.3762V34.4273M30.8412 34.4273C30.688 35.6021 30.688 36.8791 30.8412 38.2582V34.4273Z" fill="#375B9F" stroke="white" stroke-width="1.24124"/>
<path d="M24.4562 32.0265L24.2519 31.8732C23.8943 31.5668 20.4209 29.2682 20.4209 27.1739C20.4209 25.4883 21.6468 24.7732 22.8216 24.7732C23.4346 24.7732 24.0475 25.0286 24.4562 25.5394C24.8648 25.0797 25.4778 24.7732 26.0907 24.7732C27.2655 24.7732 28.4915 25.5394 28.4915 27.1739C28.4915 29.0128 25.018 31.5668 24.6605 31.8732L24.4562 32.0265Z" fill="#F5C451"/>
</svg>
