<svg width="570" height="96" viewBox="0 0 570 96" fill="none" xmlns="http://www.w3.org/2000/svg">
<path d="M56.9175 1.5C76.4004 1.5 93.0825 13.4786 100.007 30.4668L100.368 31.3506L99.7183 32.0518C88.1305 44.56 70.0705 50.2288 53.2407 50.3496C36.7445 50.468 20.8768 45.2457 13.3032 35.2393L12.9487 34.7598L12.5024 34.1387L12.7427 33.4131C18.8654 14.8786 36.3269 1.50002 56.9175 1.5Z" fill="#C7E2FF" stroke="white" stroke-width="3"/>
<path d="M41.0835 76.0253C41.071 81.0684 40.9671 85.0342 40.105 89.2958L39.7495 91.0497L38.0845 90.3934C21.804 83.9797 9.54675 65.806 10.5298 46.6346L10.7485 42.3583L13.2456 45.8368C20.4061 55.8129 28.2406 64.1155 40.439 72.5604L41.0845 73.0077V73.7938L41.0835 76.0253Z" fill="#C7E2FF" stroke="white" stroke-width="3"/>
<path d="M102.801 40.3484V40.3524C102.802 40.355 102.803 40.3591 102.803 40.3641C102.804 40.3739 102.806 40.3884 102.808 40.407C102.813 40.4449 102.82 40.501 102.829 40.5721C102.846 40.7142 102.87 40.9192 102.899 41.1727C102.958 41.6803 103.036 42.3846 103.115 43.1697C103.269 44.72 103.431 46.6569 103.431 48.0135C103.431 67.7274 91.1671 84.5736 73.8579 91.3455L72.6499 91.8182L72.0083 90.6902C70.8794 88.7071 70.5133 86.2733 70.4526 83.8084C70.3917 81.3299 70.6389 78.6263 70.8745 76.034L70.9067 75.6785L71.0962 75.3748L71.4116 74.9031C72.3047 73.6212 74.2788 71.1043 76.7231 68.0594C79.5536 64.5334 83.1019 60.1918 86.5728 55.9734C90.0442 51.7544 93.4415 47.655 95.9702 44.6102C97.2347 43.0877 98.2817 41.8283 99.0132 40.95C99.3789 40.5108 99.6665 40.1667 99.8618 39.9324C99.9593 39.8156 100.034 39.7262 100.084 39.6658C100.109 39.6359 100.128 39.6128 100.141 39.5975C100.147 39.5899 100.153 39.5838 100.156 39.5799C100.157 39.578 100.159 39.576 100.16 39.575L100.161 39.574L102.372 36.9256L102.801 40.3484Z" fill="#C7E2FF" stroke="white" stroke-width="3"/>
<path d="M57.1836 17.6736C64.6885 17.6739 70.6582 23.7879 70.6582 31.1492C70.658 38.5104 64.6883 44.6236 57.1836 44.6238C49.8122 44.6238 43.7082 38.5206 43.708 31.1492C43.708 23.7877 49.6785 17.6736 57.1836 17.6736Z" fill="#375B9F" stroke="white" stroke-width="3"/>
<path d="M108.867 14.3778C109.689 14.2341 110.499 14.4764 110.832 14.5995L110.989 14.6639L111.13 14.7108L111.259 14.785C111.574 14.9651 111.926 15.2148 112.218 15.5946C112.518 15.9863 112.684 16.423 112.764 16.8759C112.905 17.6787 112.795 18.6889 112.615 19.8895L112.612 19.9159L112.607 19.9413C111.254 27.2246 107.317 34.5611 102.504 41.5087C97.6817 48.4689 91.8871 55.1652 86.7109 61.1425C81.4792 67.2258 76.7433 72.6848 73.958 77.1854C73.6477 79.6735 73.63 82.3822 73.918 85.3173L73.9814 85.9208L73.9854 85.9618L74.0107 86.1981C74.0833 86.7733 74.2506 87.5065 74.4268 88.1718C74.5238 88.5384 74.6172 88.8621 74.6865 89.0936C74.721 89.2089 74.7492 89.301 74.7686 89.3632C74.7782 89.3942 74.7862 89.4182 74.791 89.4335C74.7934 89.441 74.7948 89.4466 74.7959 89.4501L74.7979 89.454L75.1982 90.6991L74.0195 91.2655L73.3701 89.9139L74.0186 91.2655L74.0176 91.2665C74.0168 91.2669 74.0156 91.267 74.0146 91.2675C74.0127 91.2684 74.0105 91.2701 74.0078 91.2714C74.0024 91.274 73.9949 91.2771 73.9863 91.2811C73.9691 91.2892 73.9455 91.2999 73.916 91.3134C73.8566 91.3404 73.7725 91.3782 73.6641 91.4247C73.4468 91.5179 73.132 91.6475 72.7236 91.8007C71.907 92.1069 70.7151 92.5082 69.1797 92.9081C66.1087 93.7078 61.6605 94.4999 56.0859 94.4999C50.5329 94.4999 45.9283 93.4788 42.7012 92.4364C41.0874 91.9152 39.8118 91.387 38.9277 90.9735C38.4868 90.7673 38.1355 90.5863 37.8838 90.4452C37.7608 90.3763 37.6462 90.3078 37.5508 90.245C37.5076 90.2166 37.4396 90.1703 37.3691 90.1132C37.3384 90.0882 37.2666 90.029 37.1895 89.9442C37.1521 89.9032 37.0804 89.8204 37.0098 89.703C36.9581 89.6171 36.7939 89.3321 36.7939 88.9257V88.6825L36.8701 88.451C36.8985 88.3656 36.9542 88.1185 37.0156 87.6532C37.0733 87.2161 37.1267 86.6664 37.1758 86.0311C37.2739 84.7616 37.3506 83.2056 37.4121 81.6298C37.511 79.0966 37.5744 76.4463 37.6279 75.0184C31.4125 71.3047 18.2382 63.046 7.33203 41.9608L7.3291 41.955C4.65297 36.7243 2.6421 31.2993 1.93164 26.1493L1.86621 25.6512L1.86426 25.6288L1.86133 25.6053C1.81933 25.1439 1.51706 23.2911 1.50098 21.8134C1.49272 21.0541 1.54665 20.1616 1.8252 19.3993C2.12057 18.591 2.80897 17.635 4.12598 17.5526L4.29199 17.5468C5.99228 17.5186 7.22871 18.7094 8.0127 19.7548C8.86214 20.8874 9.53241 22.3118 10.0342 23.5009C14.0366 32.0924 19.6282 37.7994 27.082 41.3202C34.5912 44.867 44.1093 46.2509 56.0322 45.9452H56.0332L57.1445 45.9061C68.6273 45.3901 79.9377 41.429 88.8594 36.038C98.1427 30.4284 104.525 23.4698 106.103 17.5526C106.292 16.6869 106.607 15.9584 107.087 15.4022C107.603 14.8032 108.237 14.4881 108.867 14.3778Z" fill="#375B9F" stroke="white" stroke-width="3"/>
<path d="M57.0587 71.025L56.5648 70.6546C55.7006 69.9139 47.3057 64.3584 47.3057 59.2967C47.3057 55.2226 50.2686 53.4943 53.1081 53.4943C54.5895 53.4943 56.071 54.1115 57.0587 55.3461C58.0463 54.235 59.5278 53.4943 61.0092 53.4943C63.8487 53.4943 66.8116 55.3461 66.8116 59.2967C66.8116 63.7411 58.4167 69.9139 57.5525 70.6546L57.0587 71.025Z" fill="#F5C451"/>
<path d="M149.165 22.3906C155.899 22.3906 159.267 26.1172 159.267 33.5703C159.267 34.1016 159.251 34.6562 159.22 35.2344H140.54C140.54 41.6719 143.946 44.8906 150.759 44.8906C153.556 44.8906 156.04 44.5 158.212 43.7188V45.8281C156.04 46.6094 153.556 47 150.759 47C142.306 47 138.079 42.8047 138.079 34.4141C138.079 26.3984 141.774 22.3906 149.165 22.3906ZM140.54 33.0312H156.899C156.806 27.3125 154.228 24.4531 149.165 24.4531C143.696 24.4531 140.821 27.3125 140.54 33.0312ZM172.228 34.6953L162.665 22.3906H165.595L173.681 32.7969L181.767 22.3906H184.696L175.157 34.6953L184.696 47H181.767L173.681 36.5938L165.595 47H162.665L172.228 34.6953ZM191.728 43.3906C194.212 44.2344 196.501 44.6562 198.595 44.6562C204.954 44.6562 208.134 41.1172 208.134 34.0391C208.134 27.7422 204.97 24.5938 198.642 24.5938C196.454 24.5938 194.149 24.7812 191.728 25.1562V43.3906ZM189.267 23.3984C192.063 22.7266 195.204 22.3906 198.688 22.3906C206.579 22.3906 210.524 26.2891 210.524 34.0859C210.524 42.6953 206.556 47 198.618 47C196.649 47 194.353 46.6094 191.728 45.8281V55.9062H189.267V23.3984ZM226.79 22.3906C233.524 22.3906 236.892 26.1172 236.892 33.5703C236.892 34.1016 236.876 34.6562 236.845 35.2344H218.165C218.165 41.6719 221.571 44.8906 228.384 44.8906C231.181 44.8906 233.665 44.5 235.837 43.7188V45.8281C233.665 46.6094 231.181 47 228.384 47C219.931 47 215.704 42.8047 215.704 34.4141C215.704 26.3984 219.399 22.3906 226.79 22.3906ZM218.165 33.0312H234.524C234.431 27.3125 231.853 24.4531 226.79 24.4531C221.321 24.4531 218.446 27.3125 218.165 33.0312ZM243.22 47V22.3906H244.978L245.282 26.4688C247.751 23.75 250.501 22.3906 253.532 22.3906V24.3594C250.595 24.3594 247.978 25.7891 245.681 28.6484V47H243.22ZM261.29 13.4844V16.2969H258.36V13.4844H261.29ZM261.056 22.3906V47H258.595V22.3906H261.056ZM278.962 22.3906C285.696 22.3906 289.063 26.1172 289.063 33.5703C289.063 34.1016 289.048 34.6562 289.017 35.2344H270.337C270.337 41.6719 273.743 44.8906 280.556 44.8906C283.353 44.8906 285.837 44.5 288.009 43.7188V45.8281C285.837 46.6094 283.353 47 280.556 47C272.103 47 267.876 42.8047 267.876 34.4141C267.876 26.3984 271.571 22.3906 278.962 22.3906ZM270.337 33.0312H286.696C286.603 27.3125 284.024 24.4531 278.962 24.4531C273.493 24.4531 270.618 27.3125 270.337 33.0312ZM295.392 47V22.3906H297.149L297.454 25.5312C300.595 23.4375 303.673 22.3906 306.688 22.3906C312.673 22.3906 315.665 24.9766 315.665 30.1484V47H313.204V30.0781C313.204 26.4219 310.993 24.5938 306.571 24.5938C303.618 24.5938 300.712 25.6328 297.853 27.7109V47H295.392ZM341.001 46.2969C338.97 46.7656 336.782 47 334.438 47C326.157 47 322.017 42.7422 322.017 34.2266C322.017 26.3359 326.157 22.3906 334.438 22.3906C336.782 22.3906 338.97 22.625 341.001 23.0938V25.2031C338.813 24.7344 336.704 24.5 334.673 24.5C328.032 24.5 324.712 27.7422 324.712 34.2266C324.712 41.3359 328.032 44.8906 334.673 44.8906C336.704 44.8906 338.813 44.6562 341.001 44.1875V46.2969ZM349.931 13.4844V16.2969H347.001V13.4844H349.931ZM349.696 22.3906V47H347.235V22.3906H349.696ZM356.282 40.0391C356.282 35.1484 359.532 32.7031 366.032 32.7031C368.329 32.7031 370.782 32.8594 373.392 33.1719V30.1484C373.392 26.3828 371.024 24.5 366.29 24.5C363.759 24.5 361.165 24.8906 358.509 25.6719V23.5625C361.165 22.7812 363.759 22.3906 366.29 22.3906C372.665 22.3906 375.853 24.9375 375.853 30.0312V47H374.353L373.79 44.5625C370.712 46.1875 367.728 47 364.837 47C359.134 47 356.282 44.6797 356.282 40.0391ZM366.032 34.8125C361.173 34.8125 358.743 36.5312 358.743 39.9688C358.743 43.25 360.774 44.8906 364.837 44.8906C367.837 44.8906 370.688 44.0938 373.392 42.5V35.2812C370.782 34.9688 368.329 34.8125 366.032 34.8125ZM383.61 47V13.4844H397.204C404.048 13.4844 407.47 16.4766 407.47 22.4609C407.47 28.9766 402.79 32.9531 393.431 34.3906L392.54 30.7344C399.415 29.7188 402.853 27.0234 402.853 22.6484C402.853 18.9297 400.837 17.0703 396.806 17.0703H387.946V47H383.61ZM411.595 39.5703C411.595 34.5234 414.923 32 421.579 32C423.72 32 425.86 32.1562 428.001 32.4688V30.1484C428.001 27.3203 425.79 25.9062 421.368 25.9062C418.837 25.9062 416.243 26.2969 413.587 27.0781V23.5625C416.243 22.7812 418.837 22.3906 421.368 22.3906C428.681 22.3906 432.337 24.9375 432.337 30.0312V47H429.899L428.399 44.5625C425.946 46.1875 423.274 47 420.384 47C414.524 47 411.595 44.5234 411.595 39.5703ZM421.579 35.5156C417.813 35.5156 415.931 36.8438 415.931 39.5C415.931 42.1562 417.415 43.4844 420.384 43.4844C423.384 43.4844 425.923 42.6875 428.001 41.0938V35.9844C425.86 35.6719 423.72 35.5156 421.579 35.5156ZM457.907 46.2969C455.876 46.7656 453.688 47 451.345 47C442.595 47 438.22 42.7422 438.22 34.2266C438.22 26.3359 442.595 22.3906 451.345 22.3906C453.688 22.3906 455.876 22.625 457.907 23.0938V26.6094C455.876 26.1406 453.61 25.9062 451.11 25.9062C445.407 25.9062 442.556 28.6797 442.556 34.2266C442.556 40.3984 445.407 43.4844 451.11 43.4844C453.61 43.4844 455.876 43.25 457.907 42.7812V46.2969ZM468.243 22.3906V47H463.907V22.3906H468.243ZM468.243 13.4844V17.5859H463.907V13.4844H468.243ZM485.915 22.3906C492.915 22.3906 496.415 25.8516 496.415 32.7734C496.415 33.7578 496.345 34.8125 496.204 35.9375H478.931C478.931 40.9688 481.868 43.4844 487.743 43.4844C490.54 43.4844 493.024 43.1719 495.196 42.5469V46.0625C493.024 46.6875 490.384 47 487.274 47C478.821 47 474.595 42.8047 474.595 34.4141C474.595 26.3984 478.368 22.3906 485.915 22.3906ZM478.931 32.3281H492.243C492.149 28.0156 490.04 25.8594 485.915 25.8594C481.54 25.8594 479.212 28.0156 478.931 32.3281ZM502.251 47V22.3906H505.181L505.954 25.5312C508.47 23.4375 511.235 22.3906 514.251 22.3906C520.392 22.3906 523.462 25.4453 523.462 31.5547V47H519.126V31.4844C519.126 27.8281 517.306 26 513.665 26C511.181 26 508.821 27.0391 506.587 29.1172V47H502.251ZM530.517 18.4062H533.235L534.173 22.3906H540.829V25.9062H534.853V40.0391C534.853 42.3359 535.845 43.4844 537.829 43.4844H540.829V47H536.704C532.579 47 530.517 44.7891 530.517 40.3672V18.4062ZM556.509 22.3906C563.509 22.3906 567.009 25.8516 567.009 32.7734C567.009 33.7578 566.938 34.8125 566.798 35.9375H549.524C549.524 40.9688 552.462 43.4844 558.337 43.4844C561.134 43.4844 563.618 43.1719 565.79 42.5469V46.0625C563.618 46.6875 560.978 47 557.868 47C549.415 47 545.188 42.8047 545.188 34.4141C545.188 26.3984 548.962 22.3906 556.509 22.3906ZM549.524 32.3281H562.837C562.743 28.0156 560.634 25.8594 556.509 25.8594C552.134 25.8594 549.806 28.0156 549.524 32.3281Z" fill="#375B9F"/>
<path d="M247.31 75.3438V73.4545H258.567V75.3438H254.029V88H251.841V75.3438H247.31ZM270.808 73.4545H273.01V83.0213C273.01 84.0393 272.771 84.9413 272.293 85.7273C271.814 86.5085 271.142 87.1241 270.275 87.5739C269.409 88.0189 268.393 88.2415 267.229 88.2415C266.069 88.2415 265.055 88.0189 264.189 87.5739C263.322 87.1241 262.65 86.5085 262.172 85.7273C261.694 84.9413 261.454 84.0393 261.454 83.0213V73.4545H263.649V82.8438C263.649 83.5019 263.793 84.0866 264.082 84.598C264.376 85.1094 264.79 85.5118 265.325 85.8054C265.86 86.0942 266.495 86.2386 267.229 86.2386C267.967 86.2386 268.604 86.0942 269.139 85.8054C269.679 85.5118 270.091 85.1094 270.375 84.598C270.664 84.0866 270.808 83.5019 270.808 82.8438V73.4545ZM290.227 77.2756C290.151 76.6032 289.839 76.0824 289.289 75.7131C288.74 75.339 288.049 75.152 287.215 75.152C286.619 75.152 286.103 75.2467 285.667 75.4361C285.231 75.6207 284.893 75.8764 284.651 76.2031C284.415 76.5251 284.296 76.892 284.296 77.304C284.296 77.6496 284.377 77.9479 284.538 78.1989C284.704 78.4498 284.919 78.6605 285.184 78.831C285.454 78.9967 285.743 79.1364 286.051 79.25C286.358 79.3589 286.654 79.4489 286.938 79.5199L288.359 79.8892C288.823 80.0028 289.299 80.1567 289.786 80.3509C290.274 80.545 290.726 80.8007 291.143 81.1179C291.56 81.4351 291.896 81.8281 292.151 82.2969C292.412 82.7656 292.542 83.3267 292.542 83.9801C292.542 84.804 292.329 85.5355 291.903 86.1747C291.482 86.8139 290.868 87.3182 290.063 87.6875C289.263 88.0568 288.295 88.2415 287.159 88.2415C286.07 88.2415 285.127 88.0687 284.332 87.723C283.536 87.3774 282.914 86.8873 282.464 86.2528C282.014 85.6136 281.766 84.8561 281.718 83.9801H283.92C283.963 84.5057 284.133 84.9437 284.431 85.294C284.734 85.6397 285.12 85.8977 285.589 86.0682C286.062 86.2339 286.581 86.3168 287.144 86.3168C287.765 86.3168 288.316 86.2197 288.799 86.0256C289.287 85.8267 289.67 85.5521 289.95 85.2017C290.229 84.8466 290.369 84.4323 290.369 83.9588C290.369 83.5279 290.246 83.1752 289.999 82.9006C289.758 82.6259 289.429 82.3987 289.012 82.2188C288.6 82.0388 288.134 81.8802 287.613 81.7429L285.894 81.2741C284.73 80.9569 283.806 80.4905 283.124 79.875C282.447 79.2595 282.109 78.4451 282.109 77.4318C282.109 76.5937 282.336 75.8622 282.791 75.2372C283.245 74.6122 283.861 74.1269 284.637 73.7812C285.414 73.4309 286.29 73.2557 287.265 73.2557C288.25 73.2557 289.119 73.4285 289.872 73.7741C290.629 74.1198 291.226 74.5956 291.661 75.2017C292.097 75.803 292.324 76.4943 292.343 77.2756H290.227ZM296.676 88H294.347L299.581 73.4545H302.116L307.351 88H305.021L300.909 76.0966H300.795L296.676 88ZM297.067 82.304H304.624V84.1506H297.067V82.304ZM309.851 88V73.4545H312.046V86.1108H318.637V88H309.851ZM330.894 73.4545H333.096V83.0213C333.096 84.0393 332.857 84.9413 332.378 85.7273C331.9 86.5085 331.228 87.1241 330.361 87.5739C329.495 88.0189 328.479 88.2415 327.315 88.2415C326.155 88.2415 325.141 88.0189 324.275 87.5739C323.408 87.1241 322.736 86.5085 322.258 85.7273C321.78 84.9413 321.54 84.0393 321.54 83.0213V73.4545H323.735V82.8438C323.735 83.5019 323.879 84.0866 324.168 84.598C324.462 85.1094 324.876 85.5118 325.411 85.8054C325.946 86.0942 326.581 86.2386 327.315 86.2386C328.053 86.2386 328.69 86.0942 329.225 85.8054C329.765 85.5118 330.177 85.1094 330.461 84.598C330.75 84.0866 330.894 83.5019 330.894 82.8438V73.4545ZM341.395 88H336.686V73.4545H341.544C342.97 73.4545 344.194 73.7457 345.216 74.3281C346.239 74.9058 347.023 75.7367 347.567 76.821C348.116 77.9006 348.391 79.1955 348.391 80.706C348.391 82.2211 348.114 83.5232 347.56 84.6122C347.011 85.7012 346.215 86.5393 345.174 87.1264C344.132 87.7088 342.873 88 341.395 88ZM338.881 86.0824H341.275C342.383 86.0824 343.303 85.8741 344.037 85.4574C344.771 85.036 345.32 84.4276 345.685 83.6321C346.05 82.8319 346.232 81.8565 346.232 80.706C346.232 79.5649 346.05 78.5966 345.685 77.8011C345.325 77.0057 344.788 76.402 344.073 75.9901C343.358 75.5781 342.47 75.3722 341.41 75.3722H338.881V86.0824ZM353.194 86.0114L353.088 86.7855C353.017 87.3537 352.896 87.9455 352.726 88.5611C352.56 89.1813 352.387 89.7566 352.207 90.2869C352.032 90.8172 351.888 91.2386 351.774 91.5511H350.268C350.33 91.2576 350.415 90.8598 350.524 90.358C350.633 89.8608 350.739 89.3045 350.844 88.6889C350.948 88.0734 351.026 87.446 351.078 86.8068L351.149 86.0114H353.194ZM362.222 88V73.4545H371.242V75.3438H364.417V79.7756H370.596V81.6577H364.417V88H362.222ZM383.695 73.4545H385.897V83.0213C385.897 84.0393 385.657 84.9413 385.179 85.7273C384.701 86.5085 384.029 87.1241 383.162 87.5739C382.296 88.0189 381.28 88.2415 380.115 88.2415C378.955 88.2415 377.942 88.0189 377.076 87.5739C376.209 87.1241 375.537 86.5085 375.059 85.7273C374.58 84.9413 374.341 84.0393 374.341 83.0213V73.4545H376.536V82.8438C376.536 83.5019 376.68 84.0866 376.969 84.598C377.263 85.1094 377.677 85.5118 378.212 85.8054C378.747 86.0942 379.381 86.2386 380.115 86.2386C380.854 86.2386 381.491 86.0942 382.026 85.8054C382.566 85.5118 382.978 85.1094 383.262 84.598C383.55 84.0866 383.695 83.5019 383.695 82.8438V73.4545ZM389.487 88V73.4545H398.607V75.3438H391.682V79.7756H398.131V81.6577H391.682V86.1108H398.692V88H389.487ZM401.938 88V73.4545H407.123C408.25 73.4545 409.185 73.6487 409.928 74.0369C410.676 74.4252 411.235 74.9626 411.604 75.6491C411.974 76.331 412.158 77.1193 412.158 78.0142C412.158 78.9044 411.971 79.688 411.597 80.3651C411.228 81.0374 410.669 81.5606 409.921 81.9347C409.178 82.3087 408.243 82.4957 407.116 82.4957H403.188V80.6065H406.917C407.627 80.6065 408.205 80.5047 408.65 80.3011C409.1 80.0975 409.429 79.8016 409.637 79.4134C409.845 79.0251 409.949 78.5587 409.949 78.0142C409.949 77.465 409.843 76.9891 409.63 76.5866C409.421 76.1842 409.092 75.8764 408.643 75.6634C408.198 75.4455 407.613 75.3366 406.888 75.3366H404.133V88H401.938ZM409.118 81.4375L412.712 88H410.212L406.689 81.4375H409.118ZM416.457 88H414.128L419.362 73.4545H421.898L427.132 88H424.803L420.69 76.0966H420.577L416.457 88ZM416.848 82.304H424.405V84.1506H416.848V82.304ZM440.034 88H435.326V73.4545H440.184C441.609 73.4545 442.833 73.7457 443.855 74.3281C444.878 74.9058 445.662 75.7367 446.206 76.821C446.755 77.9006 447.03 79.1955 447.03 80.706C447.03 82.2211 446.753 83.5232 446.199 84.6122C445.65 85.7012 444.854 86.5393 443.813 87.1264C442.771 87.7088 441.512 88 440.034 88ZM437.52 86.0824H439.914C441.022 86.0824 441.943 85.8741 442.676 85.4574C443.41 85.036 443.96 84.4276 444.324 83.6321C444.689 82.8319 444.871 81.8565 444.871 80.706C444.871 79.5649 444.689 78.5966 444.324 77.8011C443.964 77.0057 443.427 76.402 442.712 75.9901C441.997 75.5781 441.109 75.3722 440.049 75.3722H437.52V86.0824ZM450.159 88V73.4545H459.278V75.3438H452.354V79.7756H458.803V81.6577H452.354V86.1108H459.364V88H450.159ZM462.61 88V73.4545H464.805V86.1108H471.395V88H462.61ZM492.073 78.1847H489.857C489.772 77.7112 489.613 77.2945 489.381 76.9347C489.149 76.5748 488.865 76.2694 488.529 76.0185C488.193 75.7675 487.816 75.5781 487.4 75.4503C486.988 75.3224 486.55 75.2585 486.086 75.2585C485.248 75.2585 484.497 75.4692 483.834 75.8906C483.176 76.312 482.655 76.9299 482.272 77.7443C481.893 78.5587 481.704 79.553 481.704 80.7273C481.704 81.911 481.893 82.91 482.272 83.7244C482.655 84.5388 483.179 85.1544 483.841 85.571C484.504 85.9877 485.25 86.196 486.079 86.196C486.538 86.196 486.973 86.1345 487.385 86.0114C487.802 85.8835 488.179 85.6965 488.515 85.4503C488.851 85.2041 489.135 84.9034 489.367 84.5483C489.604 84.1884 489.767 83.7765 489.857 83.3125L492.073 83.3196C491.955 84.0346 491.725 84.6927 491.384 85.294C491.048 85.8906 490.615 86.4067 490.084 86.8423C489.559 87.2732 488.957 87.607 488.28 87.8438C487.603 88.0805 486.865 88.1989 486.064 88.1989C484.805 88.1989 483.683 87.9006 482.698 87.304C481.713 86.7027 480.937 85.8433 480.368 84.7259C479.805 83.6084 479.523 82.2756 479.523 80.7273C479.523 79.1742 479.807 77.8414 480.375 76.7287C480.944 75.6113 481.72 74.7543 482.705 74.1577C483.69 73.5563 484.81 73.2557 486.064 73.2557C486.836 73.2557 487.556 73.367 488.223 73.5895C488.896 73.8073 489.5 74.1293 490.035 74.5554C490.57 74.9768 491.012 75.4929 491.363 76.1037C491.713 76.7098 491.95 77.4034 492.073 78.1847ZM497.294 73.4545V88H495.099V73.4545H497.294ZM500.89 88V73.4545H506.074C507.201 73.4545 508.136 73.6487 508.88 74.0369C509.628 74.4252 510.186 74.9626 510.556 75.6491C510.925 76.331 511.11 77.1193 511.11 78.0142C511.11 78.9044 510.923 79.688 510.549 80.3651C510.179 81.0374 509.621 81.5606 508.873 81.9347C508.129 82.3087 507.194 82.4957 506.067 82.4957H502.14V80.6065H505.868C506.579 80.6065 507.156 80.5047 507.601 80.3011C508.051 80.0975 508.38 79.8016 508.588 79.4134C508.797 79.0251 508.901 78.5587 508.901 78.0142C508.901 77.465 508.794 76.9891 508.581 76.5866C508.373 76.1842 508.044 75.8764 507.594 75.6634C507.149 75.4455 506.564 75.3366 505.84 75.3366H503.084V88H500.89ZM508.07 81.4375L511.664 88H509.164L505.641 81.4375H508.07ZM526.261 78.1847H524.045C523.96 77.7112 523.801 77.2945 523.569 76.9347C523.337 76.5748 523.053 76.2694 522.717 76.0185C522.381 75.7675 522.005 75.5781 521.588 75.4503C521.176 75.3224 520.738 75.2585 520.274 75.2585C519.436 75.2585 518.685 75.4692 518.023 75.8906C517.364 76.312 516.844 76.9299 516.46 77.7443C516.081 78.5587 515.892 79.553 515.892 80.7273C515.892 81.911 516.081 82.91 516.46 83.7244C516.844 84.5388 517.367 85.1544 518.03 85.571C518.693 85.9877 519.438 86.196 520.267 86.196C520.726 86.196 521.162 86.1345 521.574 86.0114C521.99 85.8835 522.367 85.6965 522.703 85.4503C523.039 85.2041 523.323 84.9034 523.555 84.5483C523.792 84.1884 523.955 83.7765 524.045 83.3125L526.261 83.3196C526.143 84.0346 525.913 84.6927 525.572 85.294C525.236 85.8906 524.803 86.4067 524.273 86.8423C523.747 87.2732 523.146 87.607 522.469 87.8438C521.792 88.0805 521.053 88.1989 520.253 88.1989C518.993 88.1989 517.871 87.9006 516.886 87.304C515.901 86.7027 515.125 85.8433 514.557 84.7259C513.993 83.6084 513.712 82.2756 513.712 80.7273C513.712 79.1742 513.996 77.8414 514.564 76.7287C515.132 75.6113 515.908 74.7543 516.893 74.1577C517.878 73.5563 518.998 73.2557 520.253 73.2557C521.024 73.2557 521.744 73.367 522.412 73.5895C523.084 73.8073 523.688 74.1293 524.223 74.5554C524.758 74.9768 525.201 75.4929 525.551 76.1037C525.901 76.7098 526.138 77.4034 526.261 78.1847ZM538.641 73.4545H540.843V83.0213C540.843 84.0393 540.604 84.9413 540.125 85.7273C539.647 86.5085 538.975 87.1241 538.108 87.5739C537.242 88.0189 536.226 88.2415 535.061 88.2415C533.901 88.2415 532.888 88.0189 532.022 87.5739C531.155 87.1241 530.483 86.5085 530.005 85.7273C529.526 84.9413 529.287 84.0393 529.287 83.0213V73.4545H531.482V82.8438C531.482 83.5019 531.626 84.0866 531.915 84.598C532.209 85.1094 532.623 85.5118 533.158 85.8054C533.693 86.0942 534.328 86.2386 535.061 86.2386C535.8 86.2386 536.437 86.0942 536.972 85.8054C537.512 85.5118 537.924 85.1094 538.208 84.598C538.497 84.0866 538.641 83.5019 538.641 82.8438V73.4545ZM544.433 88V73.4545H546.628V86.1108H553.219V88H544.433ZM568.191 80.7273C568.191 82.2803 567.907 83.6155 567.339 84.733C566.771 85.8456 565.992 86.7027 565.002 87.304C564.017 87.9006 562.897 88.1989 561.643 88.1989C560.383 88.1989 559.259 87.9006 558.269 87.304C557.284 86.7027 556.508 85.8433 555.94 84.7259C555.371 83.6084 555.087 82.2756 555.087 80.7273C555.087 79.1742 555.371 77.8414 555.94 76.7287C556.508 75.6113 557.284 74.7543 558.269 74.1577C559.259 73.5563 560.383 73.2557 561.643 73.2557C562.897 73.2557 564.017 73.5563 565.002 74.1577C565.992 74.7543 566.771 75.6113 567.339 76.7287C567.907 77.8414 568.191 79.1742 568.191 80.7273ZM566.018 80.7273C566.018 79.5436 565.826 78.5469 565.442 77.7372C565.064 76.9228 564.543 76.3073 563.88 75.8906C563.222 75.4692 562.476 75.2585 561.643 75.2585C560.805 75.2585 560.056 75.4692 559.398 75.8906C558.74 76.3073 558.219 76.9228 557.836 77.7372C557.457 78.5469 557.268 79.5436 557.268 80.7273C557.268 81.911 557.457 82.91 557.836 83.7244C558.219 84.5341 558.74 85.1496 559.398 85.571C560.056 85.9877 560.805 86.196 561.643 86.196C562.476 86.196 563.222 85.9877 563.88 85.571C564.543 85.1496 565.064 84.5341 565.442 83.7244C565.826 82.91 566.018 81.911 566.018 80.7273Z" fill="#6CBCFC"/>
</svg>
