<svg width="556" height="96" viewBox="0 0 556 96" fill="none" xmlns="http://www.w3.org/2000/svg">
<path d="M99.7184 32.0519L100.368 31.3511L100.007 30.4663C93.0822 13.4782 76.4005 1.5 56.9175 1.5C36.3269 1.5 18.8649 14.8784 12.7422 33.4128L12.5024 34.1387L12.9489 34.7593C20.3733 45.0787 36.4827 50.47 53.2407 50.3498C70.0705 50.229 88.1307 44.5602 99.7184 32.0519Z" fill="#C7E2FF" stroke="white" stroke-width="3"/>
<path d="M13.246 45.837L10.7487 42.3577L10.5293 46.6349C9.5463 65.8064 21.8041 83.9801 38.0847 90.3937L39.7499 91.0496L40.1048 89.2955C41.0848 84.4506 41.0848 79.9883 41.0848 73.8904V73.794V73.794V73.008L40.4386 72.5607C28.2403 64.1157 20.4065 55.8132 13.246 45.837Z" fill="#C7E2FF" stroke="white" stroke-width="3"/>
<path d="M101.312 40.5352L102.801 40.3486L102.372 36.9254L100.161 39.5741L101.312 40.5352ZM101.312 40.5352C102.801 40.3486 102.801 40.3486 102.801 40.3487L102.801 40.349L102.801 40.3498L102.801 40.3529L102.803 40.3643L102.808 40.4077L102.828 40.5719C102.845 40.7141 102.87 40.9194 102.899 41.1734C102.958 41.681 103.036 42.385 103.114 43.1702C103.269 44.7205 103.431 46.657 103.431 48.0136C103.431 67.7276 91.1671 84.5735 73.8579 91.3454L72.6497 91.8181L72.0078 90.6906C70.8789 88.7074 70.513 86.2738 70.4523 83.8089C70.3917 81.3465 70.6358 78.6619 70.87 76.0851L70.8746 76.0346L70.8746 76.0345L70.8747 76.0342L70.9069 75.6783L71.0965 75.375C71.7498 74.3296 73.9298 71.5395 76.7234 68.0594C79.5539 64.5335 83.1022 60.1925 86.573 55.9741C90.0445 51.755 93.4413 47.6551 95.9701 44.6103C97.2346 43.0878 98.2821 41.8289 99.0136 40.9506C99.3794 40.5114 99.6661 40.1674 99.8615 39.9331L100.084 39.6658L100.142 39.5973L100.156 39.5799L100.16 39.5756L100.161 39.5745C100.161 39.5742 100.161 39.5741 101.312 40.5352Z" fill="#C7E2FF" stroke="white" stroke-width="3"/>
<path d="M57.1827 17.6734C49.6776 17.6734 43.7075 23.7871 43.7075 31.1486C43.7075 38.5202 49.8111 44.6238 57.1827 44.6238C64.6878 44.6238 70.6579 38.5101 70.6579 31.1486C70.6579 23.7871 64.6878 17.6734 57.1827 17.6734Z" fill="#375B9F" stroke="white" stroke-width="3"/>
<path d="M73.3697 89.9135L74.0196 91.2654L75.1984 90.6986L74.7976 89.454L74.7975 89.4539L74.7975 89.4538L74.7974 89.4536L74.7974 89.4535L74.7963 89.45L74.791 89.4333L74.769 89.3633C74.7496 89.3012 74.7213 89.2092 74.6867 89.0937C74.6174 88.8621 74.5237 88.5384 74.4265 88.1715C74.2252 87.4112 74.0356 86.5623 73.9855 85.9617L73.9838 85.9411L73.9815 85.9206C73.6293 82.7504 73.6257 79.8391 73.9578 77.18C76.6361 72.8536 81.1183 67.6435 86.1082 61.8432C86.3089 61.61 86.5103 61.3759 86.7125 61.1408C91.8883 55.164 97.6825 48.4685 102.504 41.5089C107.318 34.5613 111.254 27.2246 112.607 19.9413L112.612 19.9156L112.616 19.8897C112.796 18.6889 112.905 17.6786 112.764 16.8757C112.684 16.4228 112.519 15.986 112.218 15.5943C111.927 15.2145 111.574 14.9646 111.259 14.7846L111.13 14.7109L110.989 14.664C111.037 14.6799 109.963 14.1863 108.868 14.378C108.237 14.4882 107.604 14.8034 107.087 15.4026C106.601 15.9666 106.282 16.707 106.093 17.589C104.498 23.4983 98.1241 30.4394 88.8598 36.0375C79.6503 41.6025 67.8955 45.6441 56.0331 45.9452L56.0327 45.9452C44.1096 46.2509 34.5917 44.8668 27.0824 41.3199C19.6293 37.7995 14.0381 32.0936 10.0357 23.5035C9.53378 22.3139 8.8625 20.8884 8.01236 19.7548C7.20312 18.6758 5.91216 17.4412 4.12623 17.5528C2.809 17.6352 2.12055 18.5909 1.82518 19.3993C1.54664 20.1616 1.4925 21.0538 1.50076 21.8131C1.51288 22.9281 1.68833 24.2568 1.79176 25.04C1.82543 25.295 1.85147 25.4922 1.86176 25.6054L1.86385 25.6283L1.86663 25.6512C2.51267 30.9487 4.56624 36.5555 7.32881 41.9551L7.33187 41.961C18.237 63.0444 31.4099 71.3036 37.626 75.0179C37.6042 75.5995 37.581 76.3841 37.5546 77.2809C37.5161 78.5857 37.4705 80.1283 37.4119 81.6297C37.3505 83.2055 37.2742 84.761 37.1761 86.0305C37.127 86.666 37.0735 87.2155 37.0157 87.6528C36.9542 88.1189 36.8989 88.3663 36.8705 88.4514L36.7935 88.6823V88.9258C36.7935 89.3322 36.9579 89.6168 37.0095 89.7027C37.0802 89.8202 37.1521 89.903 37.1895 89.9441C37.2666 90.0288 37.338 90.088 37.3688 90.1129C37.4393 90.1702 37.5075 90.2164 37.5507 90.2448C37.6462 90.3077 37.761 90.3758 37.8841 90.4447C38.1358 90.5858 38.4867 90.7669 38.9276 90.9731C39.8117 91.3867 41.0871 91.9152 42.7009 92.4365C45.9281 93.4789 50.5327 94.4999 56.0859 94.4999C61.6605 94.4999 66.1089 93.708 69.1798 92.9083C70.7153 92.5084 71.9069 92.1065 72.7235 91.8002C73.1319 91.6471 73.4466 91.5178 73.6639 91.4247C73.7725 91.3781 73.8568 91.3405 73.9162 91.3134C73.946 91.2999 73.9695 91.289 73.9867 91.2809L74.0079 91.271L74.0149 91.2676L74.0176 91.2663L74.0187 91.2658C74.0191 91.2656 74.0196 91.2654 73.3697 89.9135Z" fill="#375B9F" stroke="white" stroke-width="3"/>
<path d="M57.0582 71.0245L56.5643 70.6541C55.7002 69.9134 47.3052 64.3579 47.3052 59.2962C47.3052 55.2222 50.2681 53.4938 53.1076 53.4938C54.5891 53.4938 56.0705 54.1111 57.0582 55.3456C58.0458 54.2345 59.5273 53.4938 61.0087 53.4938C63.8482 53.4938 66.8112 55.3456 66.8112 59.2962C66.8112 63.7406 58.4162 69.9134 57.552 70.6541L57.0582 71.0245Z" fill="#F5C451"/>
<path d="M152.672 27.416C159.126 27.416 162.353 30.9873 162.353 38.1299C162.353 38.639 162.338 39.1706 162.308 39.7246H144.406C144.406 45.8939 147.671 48.9785 154.199 48.9785C156.88 48.9785 159.26 48.6042 161.342 47.8555V49.877C159.26 50.6257 156.88 51 154.199 51C146.098 51 142.048 46.9795 142.048 38.9385C142.048 31.2568 145.589 27.416 152.672 27.416ZM144.406 37.6133H160.084C159.994 32.1328 157.523 29.3926 152.672 29.3926C147.431 29.3926 144.676 32.1328 144.406 37.6133ZM174.773 39.208L165.609 27.416H168.417L176.166 37.3887L183.915 27.416H186.723L177.581 39.208L186.723 51H183.915L176.166 41.0273L168.417 51H165.609L174.773 39.208ZM193.461 47.541C195.842 48.3496 198.035 48.7539 200.042 48.7539C206.136 48.7539 209.184 45.3623 209.184 38.5791C209.184 32.5446 206.151 29.5273 200.087 29.5273C197.991 29.5273 195.782 29.707 193.461 30.0664V47.541ZM191.103 28.3818C193.783 27.738 196.793 27.416 200.132 27.416C207.694 27.416 211.475 31.152 211.475 38.624C211.475 46.8747 207.671 51 200.064 51C198.178 51 195.977 50.6257 193.461 49.877V59.5352H191.103V28.3818ZM227.062 27.416C233.516 27.416 236.743 30.9873 236.743 38.1299C236.743 38.639 236.728 39.1706 236.698 39.7246H218.797C218.797 45.8939 222.061 48.9785 228.59 48.9785C231.27 48.9785 233.651 48.6042 235.732 47.8555V49.877C233.651 50.6257 231.27 51 228.59 51C220.489 51 216.438 46.9795 216.438 38.9385C216.438 31.2568 219.98 27.416 227.062 27.416ZM218.797 37.6133H234.475C234.385 32.1328 231.914 29.3926 227.062 29.3926C221.822 29.3926 219.066 32.1328 218.797 37.6133ZM242.808 51V27.416H244.492L244.784 31.3242C247.15 28.7188 249.785 27.416 252.69 27.416V29.3027C249.875 29.3027 247.367 30.6729 245.166 33.4131V51H242.808ZM260.125 18.8809V21.5762H257.317V18.8809H260.125ZM259.9 27.416V51H257.542V27.416H259.9ZM277.061 27.416C283.514 27.416 286.741 30.9873 286.741 38.1299C286.741 38.639 286.726 39.1706 286.696 39.7246H268.795C268.795 45.8939 272.059 48.9785 278.588 48.9785C281.268 48.9785 283.649 48.6042 285.73 47.8555V49.877C283.649 50.6257 281.268 51 278.588 51C270.487 51 266.437 46.9795 266.437 38.9385C266.437 31.2568 269.978 27.416 277.061 27.416ZM268.795 37.6133H284.473C284.383 32.1328 281.912 29.3926 277.061 29.3926C271.82 29.3926 269.064 32.1328 268.795 37.6133ZM292.806 51V27.416H294.49L294.782 30.4258C297.792 28.4193 300.742 27.416 303.632 27.416C309.367 27.416 312.234 29.8942 312.234 34.8506V51H309.876V34.7832C309.876 31.2793 307.757 29.5273 303.52 29.5273C300.689 29.5273 297.904 30.5231 295.164 32.5146V51H292.806ZM336.515 50.3262C334.568 50.7754 332.472 51 330.226 51C322.289 51 318.321 46.9196 318.321 38.7588C318.321 31.1969 322.289 27.416 330.226 27.416C332.472 27.416 334.568 27.6406 336.515 28.0898V30.1113C334.418 29.6621 332.397 29.4375 330.45 29.4375C324.086 29.4375 320.904 32.5446 320.904 38.7588C320.904 45.5719 324.086 48.9785 330.45 48.9785C332.397 48.9785 334.418 48.7539 336.515 48.3047V50.3262ZM345.072 18.8809V21.5762H342.265V18.8809H345.072ZM344.848 27.416V51H342.489V27.416H344.848ZM351.159 44.3291C351.159 39.6423 354.274 37.2988 360.503 37.2988C362.704 37.2988 365.055 37.4486 367.556 37.748V34.8506C367.556 31.2419 365.287 29.4375 360.75 29.4375C358.324 29.4375 355.839 29.8118 353.293 30.5605V28.5391C355.839 27.7904 358.324 27.416 360.75 27.416C366.859 27.416 369.914 29.8568 369.914 34.7383V51H368.477L367.938 48.6641C364.988 50.2214 362.128 51 359.357 51C353.892 51 351.159 48.7764 351.159 44.3291ZM360.503 39.3203C355.846 39.3203 353.518 40.9674 353.518 44.2617C353.518 47.4062 355.464 48.9785 359.357 48.9785C362.232 48.9785 364.965 48.2148 367.556 46.6875V39.7695C365.055 39.4701 362.704 39.3203 360.503 39.3203ZM377.349 51V18.8809H390.376C396.935 18.8809 400.214 21.7484 400.214 27.4834C400.214 33.7275 395.729 37.5384 386.76 38.916L385.906 35.4121C392.495 34.4388 395.789 31.8558 395.789 27.6631C395.789 24.0993 393.857 22.3174 389.994 22.3174H381.504V51H377.349ZM404.167 43.8799C404.167 39.0433 407.356 36.625 413.735 36.625C415.787 36.625 417.838 36.7747 419.89 37.0742V34.8506C419.89 32.1403 417.771 30.7852 413.533 30.7852C411.107 30.7852 408.622 31.1595 406.076 31.9082V28.5391C408.622 27.7904 411.107 27.416 413.533 27.416C420.541 27.416 424.045 29.8568 424.045 34.7383V51H421.709L420.271 48.6641C417.921 50.2214 415.36 51 412.59 51C406.975 51 404.167 48.6266 404.167 43.8799ZM413.735 39.9941C410.127 39.9941 408.322 41.2669 408.322 43.8125C408.322 46.3581 409.745 47.6309 412.59 47.6309C415.465 47.6309 417.898 46.8672 419.89 45.3398V40.4434C417.838 40.1439 415.787 39.9941 413.735 39.9941ZM448.55 50.3262C446.603 50.7754 444.507 51 442.261 51C433.875 51 429.683 46.9196 429.683 38.7588C429.683 31.1969 433.875 27.416 442.261 27.416C444.507 27.416 446.603 27.6406 448.55 28.0898V31.459C446.603 31.0098 444.432 30.7852 442.036 30.7852C436.571 30.7852 433.838 33.443 433.838 38.7588C433.838 44.6735 436.571 47.6309 442.036 47.6309C444.432 47.6309 446.603 47.4062 448.55 46.957V50.3262ZM458.455 27.416V51H454.3V27.416H458.455ZM458.455 18.8809V22.8115H454.3V18.8809H458.455ZM475.391 27.416C482.099 27.416 485.453 30.7327 485.453 37.3662C485.453 38.3096 485.386 39.3203 485.251 40.3984H468.697C468.697 45.2201 471.512 47.6309 477.143 47.6309C479.823 47.6309 482.204 47.3314 484.285 46.7324V50.1016C482.204 50.7005 479.673 51 476.693 51C468.592 51 464.542 46.9795 464.542 38.9385C464.542 31.2568 468.158 27.416 475.391 27.416ZM468.697 36.9395H481.455C481.365 32.8066 479.344 30.7402 475.391 30.7402C471.198 30.7402 468.967 32.8066 468.697 36.9395ZM491.046 51V27.416H493.854L494.595 30.4258C497.006 28.4193 499.656 27.416 502.546 27.416C508.431 27.416 511.373 30.3434 511.373 36.1982V51H507.218V36.1309C507.218 32.627 505.473 30.875 501.984 30.875C499.604 30.875 497.342 31.8708 495.201 33.8623V51H491.046ZM518.134 23.5977H520.739L521.638 27.416H528.017V30.7852H522.289V44.3291C522.289 46.5303 523.24 47.6309 525.142 47.6309H528.017V51H524.063C520.11 51 518.134 48.8812 518.134 44.6436V23.5977ZM543.043 27.416C549.751 27.416 553.105 30.7327 553.105 37.3662C553.105 38.3096 553.038 39.3203 552.903 40.3984H536.35C536.35 45.2201 539.165 47.6309 544.795 47.6309C547.475 47.6309 549.856 47.3314 551.938 46.7324V50.1016C549.856 50.7005 547.326 51 544.346 51C536.245 51 532.194 46.9795 532.194 38.9385C532.194 31.2568 535.811 27.416 543.043 27.416ZM536.35 36.9395H549.107C549.018 32.8066 546.996 30.7402 543.043 30.7402C538.85 30.7402 536.619 32.8066 536.35 36.9395Z" fill="#375B9F"/>
<path d="M286.216 69.1268V67.8182H295.353V69.1268H291.522V80H290.047V69.1268H286.216ZM305.959 67.8182H307.434V75.8839C307.434 76.7166 307.238 77.4601 306.845 78.1144C306.456 78.7648 305.907 79.2783 305.197 79.655C304.488 80.0278 303.655 80.2141 302.699 80.2141C301.743 80.2141 300.911 80.0278 300.201 79.655C299.491 79.2783 298.94 78.7648 298.547 78.1144C298.159 77.4601 297.964 76.7166 297.964 75.8839V67.8182H299.44V75.7649C299.44 76.3597 299.57 76.8891 299.832 77.3531C300.094 77.8131 300.467 78.1759 300.95 78.4416C301.438 78.7033 302.021 78.8342 302.699 78.8342C303.377 78.8342 303.96 78.7033 304.448 78.4416C304.936 78.1759 305.308 77.8131 305.566 77.3531C305.828 76.8891 305.959 76.3597 305.959 75.7649V67.8182ZM322.423 70.8636C322.351 70.2609 322.062 69.793 321.554 69.4599C321.047 69.1268 320.424 68.9602 319.686 68.9602C319.147 68.9602 318.675 69.0475 318.271 69.2219C317.87 69.3964 317.557 69.6363 317.331 69.9417C317.109 70.247 316.998 70.594 316.998 70.9826C316.998 71.3078 317.075 71.5873 317.23 71.8213C317.388 72.0513 317.591 72.2436 317.837 72.3983C318.082 72.5489 318.34 72.6739 318.61 72.773C318.879 72.8682 319.127 72.9455 319.353 73.005L320.591 73.3381C320.908 73.4213 321.261 73.5363 321.649 73.6831C322.042 73.8298 322.417 74.03 322.774 74.2838C323.134 74.5336 323.432 74.8548 323.666 75.2474C323.9 75.64 324.017 76.1218 324.017 76.6928C324.017 77.3511 323.844 77.9459 323.499 78.4773C323.158 79.0086 322.659 79.431 322 79.7442C321.346 80.0575 320.551 80.2141 319.615 80.2141C318.743 80.2141 317.987 80.0734 317.349 79.7918C316.714 79.5103 316.215 79.1177 315.85 78.6141C315.489 78.1105 315.285 77.5256 315.237 76.8594H316.76C316.8 77.3194 316.954 77.7 317.224 78.0014C317.497 78.2988 317.842 78.5209 318.259 78.6676C318.679 78.8104 319.131 78.8817 319.615 78.8817C320.178 78.8817 320.684 78.7905 321.132 78.6081C321.58 78.4218 321.935 78.164 322.197 77.8349C322.458 77.5018 322.589 77.1132 322.589 76.669C322.589 76.2646 322.476 75.9354 322.25 75.6816C322.024 75.4279 321.727 75.2217 321.358 75.063C320.989 74.9044 320.591 74.7656 320.162 74.6467L318.663 74.2184C317.712 73.9448 316.958 73.5542 316.403 73.0466C315.848 72.539 315.57 71.8748 315.57 71.054C315.57 70.3719 315.755 69.7771 316.123 69.2695C316.496 68.758 316.996 68.3614 317.622 68.0799C318.253 67.7944 318.957 67.6516 319.734 67.6516C320.519 67.6516 321.217 67.7924 321.828 68.074C322.438 68.3515 322.922 68.7322 323.279 69.216C323.64 69.6998 323.83 70.249 323.85 70.8636H322.423ZM327.277 80H325.73L330.203 67.8182H331.726L336.199 80H334.652L331.012 69.7454H330.917L327.277 80ZM327.848 75.2415H334.081V76.5501H327.848V75.2415ZM338.431 80V67.8182H339.907V78.6914H345.569V80H338.431ZM356.183 67.8182H357.658V75.8839C357.658 76.7166 357.461 77.4601 357.069 78.1144C356.68 78.7648 356.131 79.2783 355.421 79.655C354.711 80.0278 353.879 80.2141 352.923 80.2141C351.967 80.2141 351.135 80.0278 350.425 79.655C349.715 79.2783 349.164 78.7648 348.771 78.1144C348.383 77.4601 348.188 76.7166 348.188 75.8839V67.8182H349.663V75.7649C349.663 76.3597 349.794 76.8891 350.056 77.3531C350.318 77.8131 350.69 78.1759 351.174 78.4416C351.662 78.7033 352.245 78.8342 352.923 78.8342C353.601 78.8342 354.184 78.7033 354.672 78.4416C355.159 78.1759 355.532 77.8131 355.79 77.3531C356.052 76.8891 356.183 76.3597 356.183 75.7649V67.8182ZM364.698 80H360.939V67.8182H364.864C366.046 67.8182 367.057 68.0621 367.898 68.5498C368.739 69.0336 369.383 69.7295 369.831 70.6376C370.279 71.5417 370.503 72.6243 370.503 73.8853C370.503 75.1542 370.277 76.2467 369.825 77.1627C369.373 78.0748 368.715 78.7767 367.85 79.2684C366.986 79.7561 365.935 80 364.698 80ZM362.414 78.6914H364.603C365.61 78.6914 366.445 78.4971 367.107 78.1085C367.769 77.7199 368.263 77.1667 368.588 76.449C368.913 75.7312 369.076 74.8767 369.076 73.8853C369.076 72.9019 368.915 72.0552 368.594 71.3454C368.273 70.6317 367.793 70.0844 367.154 69.7037C366.516 69.3191 365.721 69.1268 364.769 69.1268H362.414V78.6914ZM374.447 78.3345L374.352 78.9769C374.285 79.429 374.182 79.9128 374.043 80.4283C373.908 80.9438 373.767 81.4295 373.62 81.8856C373.474 82.3416 373.353 82.7044 373.258 82.9741H372.187C372.238 82.7203 372.306 82.3852 372.389 81.9688C372.472 81.5525 372.556 81.0865 372.639 80.571C372.726 80.0595 372.798 79.536 372.853 79.0007L372.924 78.3345H374.447ZM382.619 80V67.8182H389.924V69.1268H384.094V73.2429H389.376V74.5515H384.094V80H382.619ZM400.779 67.8182H402.255V75.8839C402.255 76.7166 402.058 77.4601 401.666 78.1144C401.277 78.7648 400.728 79.2783 400.018 79.655C399.308 80.0278 398.476 80.2141 397.52 80.2141C396.564 80.2141 395.731 80.0278 395.022 79.655C394.312 79.2783 393.761 78.7648 393.368 78.1144C392.979 77.4601 392.785 76.7166 392.785 75.8839V67.8182H394.26V75.7649C394.26 76.3597 394.391 76.8891 394.653 77.3531C394.915 77.8131 395.287 78.1759 395.771 78.4416C396.259 78.7033 396.842 78.8342 397.52 78.8342C398.198 78.8342 398.781 78.7033 399.269 78.4416C399.756 78.1759 400.129 77.8131 400.387 77.3531C400.649 76.8891 400.779 76.3597 400.779 75.7649V67.8182ZM405.535 80V67.8182H412.887V69.1268H407.011V73.2429H412.507V74.5515H407.011V78.6914H412.982V80H405.535ZM415.881 80V67.8182H419.997C420.949 67.8182 421.73 67.9808 422.341 68.3059C422.952 68.6271 423.404 69.0693 423.697 69.6324C423.99 70.1955 424.137 70.8359 424.137 71.5536C424.137 72.2714 423.99 72.9078 423.697 73.463C423.404 74.0181 422.953 74.4543 422.347 74.7716C421.74 75.0848 420.965 75.2415 420.021 75.2415H416.69V73.9091H419.973C420.624 73.9091 421.147 73.8139 421.544 73.6236C421.944 73.4332 422.234 73.1636 422.412 72.8146C422.595 72.4617 422.686 72.0414 422.686 71.5536C422.686 71.0659 422.595 70.6396 422.412 70.2748C422.23 69.9099 421.938 69.6284 421.538 69.4301C421.137 69.2279 420.608 69.1268 419.95 69.1268H417.356V80H415.881ZM421.615 74.5277L424.613 80H422.9L419.95 74.5277H421.615ZM427.43 80H425.883L430.356 67.8182H431.879L436.352 80H434.806L431.165 69.7454H431.07L427.43 80ZM428.001 75.2415H434.235V76.5501H428.001V75.2415ZM447.39 80H443.631V67.8182H447.556C448.738 67.8182 449.749 68.0621 450.59 68.5498C451.431 69.0336 452.075 69.7295 452.523 70.6376C452.971 71.5417 453.195 72.6243 453.195 73.8853C453.195 75.1542 452.969 76.2467 452.517 77.1627C452.065 78.0748 451.407 78.7767 450.542 79.2684C449.678 79.7561 448.627 80 447.39 80ZM445.106 78.6914H447.295C448.302 78.6914 449.137 78.4971 449.799 78.1085C450.461 77.7199 450.955 77.1667 451.28 76.449C451.605 75.7312 451.768 74.8767 451.768 73.8853C451.768 72.9019 451.607 72.0552 451.286 71.3454C450.965 70.6317 450.485 70.0844 449.846 69.7037C449.208 69.3191 448.413 69.1268 447.461 69.1268H445.106V78.6914ZM456.005 80V67.8182H463.357V69.1268H457.48V73.2429H462.976V74.5515H457.48V78.6914H463.452V80H456.005ZM466.35 80V67.8182H467.825V78.6914H473.488V80H466.35ZM490.956 71.625H489.481C489.393 71.2007 489.241 70.8279 489.023 70.5067C488.808 70.1855 488.547 69.9159 488.237 69.6978C487.932 69.4757 487.593 69.3092 487.22 69.1982C486.848 69.0871 486.459 69.0316 486.054 69.0316C485.317 69.0316 484.649 69.218 484.05 69.5907C483.455 69.9635 482.981 70.5127 482.628 71.2384C482.279 71.964 482.105 72.8543 482.105 73.9091C482.105 74.9639 482.279 75.8541 482.628 76.5798C482.981 77.3055 483.455 77.8547 484.05 78.2275C484.649 78.6002 485.317 78.7866 486.054 78.7866C486.459 78.7866 486.848 78.7311 487.22 78.62C487.593 78.509 487.932 78.3444 488.237 78.1263C488.547 77.9043 488.808 77.6326 489.023 77.3114C489.241 76.9863 489.393 76.6135 489.481 76.1932H490.956C490.845 76.8158 490.642 77.3729 490.349 77.8646C490.056 78.3563 489.691 78.7747 489.255 79.1197C488.818 79.4607 488.329 79.7204 487.785 79.8989C487.246 80.0773 486.669 80.1665 486.054 80.1665C485.015 80.1665 484.092 79.9128 483.283 79.4052C482.474 78.8976 481.837 78.1759 481.373 77.2401C480.909 76.3042 480.677 75.1939 480.677 73.9091C480.677 72.6243 480.909 71.514 481.373 70.5781C481.837 69.6423 482.474 68.9206 483.283 68.413C484.092 67.9054 485.015 67.6516 486.054 67.6516C486.669 67.6516 487.246 67.7409 487.785 67.9193C488.329 68.0977 488.818 68.3595 489.255 68.7045C489.691 69.0455 490.056 69.4619 490.349 69.9536C490.642 70.4413 490.845 70.9985 490.956 71.625ZM495.15 67.8182V80H493.674V67.8182H495.15ZM498.442 80V67.8182H502.558C503.51 67.8182 504.291 67.9808 504.902 68.3059C505.513 68.6271 505.965 69.0693 506.258 69.6324C506.552 70.1955 506.698 70.8359 506.698 71.5536C506.698 72.2714 506.552 72.9078 506.258 73.463C505.965 74.0181 505.515 74.4543 504.908 74.7716C504.301 75.0848 503.526 75.2415 502.582 75.2415H499.251V73.9091H502.535C503.185 73.9091 503.708 73.8139 504.105 73.6236C504.505 73.4332 504.795 73.1636 504.973 72.8146C505.156 72.4617 505.247 72.0414 505.247 71.5536C505.247 71.0659 505.156 70.6396 504.973 70.2748C504.791 69.9099 504.499 69.6284 504.099 69.4301C503.698 69.2279 503.169 69.1268 502.511 69.1268H499.917V80H498.442ZM504.176 74.5277L507.174 80H505.461L502.511 74.5277H504.176ZM519.294 71.625H517.819C517.732 71.2007 517.579 70.8279 517.361 70.5067C517.147 70.1855 516.885 69.9159 516.576 69.6978C516.27 69.4757 515.931 69.3092 515.559 69.1982C515.186 69.0871 514.797 69.0316 514.393 69.0316C513.655 69.0316 512.987 69.218 512.388 69.5907C511.793 69.9635 511.319 70.5127 510.967 71.2384C510.618 71.964 510.443 72.8543 510.443 73.9091C510.443 74.9639 510.618 75.8541 510.967 76.5798C511.319 77.3055 511.793 77.8547 512.388 78.2275C512.987 78.6002 513.655 78.7866 514.393 78.7866C514.797 78.7866 515.186 78.7311 515.559 78.62C515.931 78.509 516.27 78.3444 516.576 78.1263C516.885 77.9043 517.147 77.6326 517.361 77.3114C517.579 76.9863 517.732 76.6135 517.819 76.1932H519.294C519.183 76.8158 518.981 77.3729 518.687 77.8646C518.394 78.3563 518.029 78.7747 517.593 79.1197C517.157 79.4607 516.667 79.7204 516.124 79.8989C515.584 80.0773 515.007 80.1665 514.393 80.1665C513.354 80.1665 512.43 79.9128 511.621 79.4052C510.812 78.8976 510.175 78.1759 509.711 77.2401C509.248 76.3042 509.016 75.1939 509.016 73.9091C509.016 72.6243 509.248 71.514 509.711 70.5781C510.175 69.6423 510.812 68.9206 511.621 68.413C512.43 67.9054 513.354 67.6516 514.393 67.6516C515.007 67.6516 515.584 67.7409 516.124 67.9193C516.667 68.0977 517.157 68.3595 517.593 68.7045C518.029 69.0455 518.394 69.4619 518.687 69.9536C518.981 70.4413 519.183 70.9985 519.294 71.625ZM530.007 67.8182H531.482V75.8839C531.482 76.7166 531.286 77.4601 530.893 78.1144C530.505 78.7648 529.955 79.2783 529.246 79.655C528.536 80.0278 527.703 80.2141 526.747 80.2141C525.792 80.2141 524.959 80.0278 524.249 79.655C523.539 79.2783 522.988 78.7648 522.596 78.1144C522.207 77.4601 522.013 76.7166 522.013 75.8839V67.8182H523.488V75.7649C523.488 76.3597 523.619 76.8891 523.88 77.3531C524.142 77.8131 524.515 78.1759 524.999 78.4416C525.486 78.7033 526.069 78.8342 526.747 78.8342C527.425 78.8342 528.008 78.7033 528.496 78.4416C528.984 78.1759 529.357 77.8131 529.614 77.3531C529.876 76.8891 530.007 76.3597 530.007 75.7649V67.8182ZM534.763 80V67.8182H536.238V78.6914H541.901V80H534.763ZM554.324 73.9091C554.324 75.1939 554.092 76.3042 553.628 77.2401C553.164 78.1759 552.528 78.8976 551.719 79.4052C550.91 79.9128 549.986 80.1665 548.947 80.1665C547.908 80.1665 546.984 79.9128 546.175 79.4052C545.366 78.8976 544.729 78.1759 544.266 77.2401C543.802 76.3042 543.57 75.1939 543.57 73.9091C543.57 72.6243 543.802 71.514 544.266 70.5781C544.729 69.6423 545.366 68.9206 546.175 68.413C546.984 67.9054 547.908 67.6516 548.947 67.6516C549.986 67.6516 550.91 67.9054 551.719 68.413C552.528 68.9206 553.164 69.6423 553.628 70.5781C554.092 71.514 554.324 72.6243 554.324 73.9091ZM552.896 73.9091C552.896 72.8543 552.72 71.964 552.367 71.2384C552.018 70.5127 551.544 69.9635 550.945 69.5907C550.35 69.218 549.684 69.0316 548.947 69.0316C548.209 69.0316 547.541 69.218 546.942 69.5907C546.347 69.9635 545.874 70.5127 545.521 71.2384C545.172 71.964 544.997 72.8543 544.997 73.9091C544.997 74.9639 545.172 75.8541 545.521 76.5798C545.874 77.3055 546.347 77.8547 546.942 78.2275C547.541 78.6002 548.209 78.7866 548.947 78.7866C549.684 78.7866 550.35 78.6002 550.945 78.2275C551.544 77.8547 552.018 77.3055 552.367 76.5798C552.72 75.8541 552.896 74.9639 552.896 73.9091Z" fill="#6CBCFC"/>
</svg>
