<svg width="24" height="24" viewBox="0 0 24 24" fill="none" xmlns="http://www.w3.org/2000/svg">
<path d="M22 12C22 11.6 21.7 11.2 21.3 11.1L15.5 9.2C15.2 9 15 8.8 14.9 8.5L13 2.7C12.8 2.3 12.4 2 12 2C11.6 2 11.2 2.3 11.1 2.7L9.1 8.5C9 8.8 8.8 9 8.5 9.1L2.7 11C2.3 11.2 2 11.6 2 12C2 12.4 2.3 12.8 2.7 12.9L8.5 14.8C8.8 15 9 15.2 9.1 15.5L11 21.3C11.1 21.7 11.5 22 11.9 22C12.3 22 12.7 21.7 12.8 21.3L14.7 15.5C14.8 15.2 15 15 15.3 14.9L21.1 13C21.7 12.8 22 12.4 22 12ZM14.9 13C14 13.3 13.3 14 13 14.9L12 17.8L11 14.9C10.7 14 10 13.3 9.1 13L6.2 12L9.1 11C10 10.7 10.7 10 11 9.1L12 6.2L13 9.1C13.3 10 14 10.7 14.9 11L17.8 12L14.9 13Z" fill="#6CBCFC"/>
<path d="M3 6H4V7C4 7.6 4.4 8 5 8C5.6 8 6 7.6 6 7V6H7C7.6 6 8 5.6 8 5C8 4.4 7.6 4 7 4H6V3C6 2.4 5.6 2 5 2C4.4 2 4 2.4 4 3V4H3C2.4 4 2 4.4 2 5C2 5.6 2.4 6 3 6Z" fill="#6CBCFC"/>
<path d="M21 18H20V17C20 16.4 19.6 16 19 16C18.4 16 18 16.4 18 17V18H17C16.4 18 16 18.4 16 19C16 19.6 16.4 20 17 20H18V21C18 21.6 18.4 22 19 22C19.6 22 20 21.6 20 21V20H21C21.6 20 22 19.6 22 19C22 18.4 21.6 18 21 18Z" fill="#6CBCFC"/>
</svg>
